<?xml version="1.0" encoding="UTF-8"?>
<svg id="Ebene_1" data-name="Ebene 1" xmlns="http://www.w3.org/2000/svg" xmlns:xlink="http://www.w3.org/1999/xlink" viewBox="0 0 408.18 110.06">
  <defs>
    <style>
      .cls-1 {
        fill: none;
      }

      .cls-1, .cls-2 {
        stroke-width: 0px;
      }

      .cls-2 {
        fill: #fff;
      }

      .cls-3 {
        clip-path: url(#clippath);
      }
    </style>
    <clipPath id="clippath">
      <rect class="cls-1" y="0" width="408.18" height="110.06"/>
    </clipPath>
  </defs>
  <path class="cls-2" d="m370.6.08l37.59.02-8.7,37.6h-37.4L370.6.08Zm-45.55-.02l37.04.02-8.51,37.62h-37.04L325.05.05Zm-45.95-.02l37.44.02-8.52,37.65h-37.64L279.11.03Zm-19.68,85.02l9.04-39.05h37.68s-8.84,39.07-8.84,39.07l-37.88-.02Zm46.38.03l8.84-39.08h37.04l-8.85,39.1-37.04-.02Zm45.55.02l8.85-39.1h37.35l-9.05,39.12-37.15-.02Z"/>
  <g class="cls-3">
    <path class="cls-2" d="m379.41,109.83l.91-3.86,1.34-1.16,2.24,5.02h1.92l-2.76-5.99,4.64-4.22h-2.17l-3.75,3.61c-.29.29-.69.67-1,1.03h-.04l2.22-9.4h-1.75l-3.53,14.97h1.73Zm-11.05,0l1.05-4.51c.55-2.36,1.98-4.2,3.48-4.2.21,0,.36.02.48.04l.42-1.73c-.15-.02-.34-.04-.51-.04-1.37,0-2.49,1.06-3.23,2.45h-.06c.16-.78.28-1.5.4-2.21h-1.54c-.17.95-.38,2.3-.69,3.63l-1.54,6.58h1.75Zm-12.72-1.16c-1.46,0-2.33-1.2-2.25-2.87.11-2.34,1.68-5.02,3.88-5.02,1.83,0,2.31,1.67,2.25,2.85-.11,2.38-1.79,5.04-3.86,5.04h-.02Zm-.25,1.39c3.42,0,5.8-3.27,5.94-6.43.1-2.15-1.05-4.24-3.81-4.24-3.31,0-5.79,3.1-5.95,6.47-.11,2.3,1.24,4.2,3.79,4.2h.02Zm-22.09-10.44l.49,10.21h1.62l3.19-5.61c.51-.91.84-1.67,1.3-2.66h.04c-.04.91-.04,1.77.02,2.72l.42,5.54h1.62l5.5-10.21h-1.77l-3.03,5.88c-.47.99-.78,1.77-1.09,2.59h-.04c.03-.67,0-1.54-.05-2.66l-.37-5.82h-1.54l-3.28,5.93c-.55,1.01-.97,1.9-1.23,2.55h-.06c.06-.82.11-1.48.08-2.74l-.1-5.74h-1.73Zm-9.13-1.88l-.44,1.88h-1.46l-.31,1.37h1.45l-1.23,5.17c-.18.74-.29,1.31-.32,1.9-.05,1.05.52,1.98,2.06,1.98.51,0,1.04-.06,1.36-.19l.15-1.37c-.23.06-.51.08-.83.08-.68,0-.95-.38-.93-.99.02-.53.13-1.05.29-1.62l1.15-4.96h2.45l.34-1.37h-2.45l.58-2.45-1.86.57Zm-9.81,4.32c-.07,1.58-2.24,1.96-4.98,1.92.49-1.6,1.81-3.23,3.48-3.23.93,0,1.54.46,1.5,1.29v.02Zm-.14,5.86c-.65.34-1.57.7-2.77.7-1.05,0-1.86-.44-2.21-1.37-.21-.53-.23-1.48-.12-1.92,3.77.06,6.82-.63,6.94-3.31.07-1.48-.93-2.64-2.87-2.64-3.29,0-5.73,3.48-5.87,6.56-.1,2.26.99,4.09,3.69,4.09,1.37,0,2.63-.38,3.41-.8l-.19-1.31Zm-23.18,1.9l1.75-7.42c.45-1.94.74-3.35.95-4.68l.06-.02c.25,1.35.53,2.34,1.12,4.09l2.88,8.03h1.73l3.34-14.21h-1.64l-1.78,7.55c-.47,1.98-.67,3.16-.81,4.45l-.04.02c-.24-1.22-.51-2.34-1.06-3.96l-2.88-8.05h-1.92l-3.34,14.21h1.64Zm-22.52-.49c.45.36,1.4.68,2.5.7,2.17,0,3.96-1.2,4.05-3.35.05-1.14-.67-2.02-1.78-2.68-.9-.51-1.37-.97-1.33-1.71.04-.88.83-1.54,1.91-1.54.76,0,1.38.25,1.73.46l.54-1.33c-.37-.25-1.18-.51-2.09-.51-2.17,0-3.77,1.37-3.85,3.16-.05,1.03.57,1.94,1.72,2.59,1.05.59,1.39,1.08,1.35,1.88-.04.91-.83,1.67-2.02,1.67-.84,0-1.71-.34-2.16-.63l-.56,1.29Zm-7.04.49l3.53-14.97h-1.75l-3.53,14.97h1.75Zm-9.56-5.82c-.63,2.72-2.45,4.62-3.9,4.62-1.35,0-1.7-1.12-1.65-2.26.13-2.85,2.43-5.59,5.06-5.59.59,0,.97.06,1.22.15l-.73,3.08Zm.81,5.82c0-1.14.22-2.95.64-4.72l1.3-5.33c-.71-.21-1.76-.38-2.72-.38-4.45,0-7.23,3.73-7.4,7.3-.09,1.94.96,3.37,2.78,3.37,1.43,0,2.88-.74,4.09-2.87h.04c-.18,1.05-.32,2.02-.35,2.63h1.62Zm-22.27,0l1.15-4.96c.58-2.53,2.42-4.03,3.66-4.03s1.57.76,1.52,1.77c-.02.44-.11.91-.19,1.31l-1.39,5.9h1.73l1.41-5.97c.13-.55.24-1.18.26-1.65.1-2.13-1.24-2.83-2.44-2.83-1.5,0-2.9.8-3.9,2.24h-.04l.37-2h-1.58c-.14.84-.34,1.83-.62,2.97l-1.68,7.23h1.73Zm-12.73-1.16c-1.46,0-2.33-1.2-2.25-2.87.11-2.34,1.68-5.02,3.88-5.02,1.83,0,2.31,1.67,2.25,2.85-.11,2.38-1.79,5.04-3.86,5.04h-.02Zm-.25,1.39c3.42,0,5.8-3.27,5.94-6.43.1-2.15-1.05-4.24-3.81-4.24-3.31,0-5.79,3.1-5.95,6.47-.1,2.3,1.24,4.2,3.79,4.2h.02Zm-9.51-12.17c.67,0,1.18-.49,1.23-1.18.03-.63-.37-1.1-.98-1.1s-1.16.51-1.21,1.18c-.03.63.33,1.1.94,1.1h.02Zm-2.08,11.93l2.4-10.21h-1.73l-2.42,10.21h1.75Zm-14.36-.49c.45.36,1.4.68,2.5.7,2.17,0,3.96-1.2,4.05-3.35.05-1.14-.67-2.02-1.78-2.68-.91-.51-1.37-.97-1.34-1.71.04-.88.83-1.54,1.9-1.54.76,0,1.38.25,1.73.46l.54-1.33c-.37-.25-1.18-.51-2.09-.51-2.17,0-3.77,1.37-3.85,3.16-.05,1.03.56,1.94,1.72,2.59,1.05.59,1.39,1.08,1.35,1.88-.04.91-.83,1.67-2.02,1.67-.84,0-1.71-.34-2.16-.63l-.56,1.29Zm-12.23,0c.45.36,1.4.68,2.5.7,2.17,0,3.96-1.2,4.05-3.35.05-1.14-.67-2.02-1.78-2.68-.9-.51-1.37-.97-1.33-1.71.04-.88.83-1.54,1.9-1.54.76,0,1.38.25,1.73.46l.54-1.33c-.37-.25-1.18-.51-2.08-.51-2.17,0-3.77,1.37-3.86,3.16-.05,1.03.57,1.94,1.72,2.59,1.05.59,1.39,1.08,1.35,1.88-.04.91-.83,1.67-2.02,1.67-.84,0-1.71-.34-2.16-.63l-.56,1.29Zm-6.21-7.27c-.07,1.58-2.24,1.96-4.98,1.92.49-1.6,1.81-3.23,3.48-3.23.93,0,1.54.46,1.5,1.29v.02Zm-.14,5.86c-.65.34-1.57.7-2.77.7-1.05,0-1.86-.44-2.21-1.37-.21-.53-.23-1.48-.12-1.92,3.77.06,6.82-.63,6.94-3.31.07-1.48-.93-2.64-2.87-2.64-3.29,0-5.73,3.48-5.86,6.56-.1,2.26,1,4.09,3.69,4.09,1.37,0,2.63-.38,3.41-.8l-.19-1.31Zm-15.52,1.9l2.07-8.83h2.26l.34-1.37h-2.28l.11-.49c.37-1.69,1.11-3.04,2.5-3.04.4,0,.76.06,1.02.19l.44-1.39c-.25-.15-.68-.27-1.4-.27-.88,0-1.79.32-2.47.91-.94.82-1.51,2.13-1.83,3.54l-.11.55h-1.37l-.31,1.37h1.35l-2.07,8.83h1.75Zm-12.98-1.16c-1.46,0-2.33-1.2-2.25-2.87.11-2.34,1.68-5.02,3.88-5.02,1.83,0,2.31,1.67,2.25,2.85-.11,2.38-1.79,5.04-3.86,5.04h-.02Zm-.25,1.39c3.42,0,5.8-3.27,5.94-6.43.1-2.15-1.05-4.24-3.81-4.24-3.31,0-5.79,3.1-5.95,6.47-.1,2.3,1.24,4.2,3.8,4.2h.02Zm-13.34-.23l1.05-4.51c.55-2.36,1.98-4.2,3.48-4.2.21,0,.36.02.48.04l.42-1.73c-.15-.02-.33-.04-.5-.04-1.37,0-2.49,1.06-3.23,2.45h-.06c.16-.78.28-1.5.4-2.21h-1.54c-.17.95-.38,2.3-.69,3.63l-1.54,6.58h1.75Zm-11.8-12.76c.32-.08.85-.15,1.55-.15,1.62,0,2.79.67,2.72,2.36-.09,2-1.76,3.48-4.16,3.48-.51,0-.93-.02-1.41-.13l1.31-5.57Zm-4.71,12.76h1.73l1.33-5.71c.44.06.9.1,1.45.1,1.6,0,3.23-.44,4.36-1.37.96-.76,1.8-2.11,1.88-3.69.05-1.12-.27-1.94-.92-2.55-.77-.76-2.06-1.1-3.43-1.1-1.16,0-2.3.13-3.09.3l-3.31,14.02Zm-20.87-.49c.45.36,1.4.68,2.5.7,2.17,0,3.96-1.2,4.05-3.35.05-1.14-.67-2.02-1.78-2.68-.9-.51-1.37-.97-1.34-1.71.04-.88.83-1.54,1.9-1.54.76,0,1.38.25,1.73.46l.55-1.33c-.37-.25-1.18-.51-2.09-.51-2.17,0-3.77,1.37-3.85,3.16-.05,1.03.56,1.94,1.72,2.59,1.05.59,1.39,1.08,1.35,1.88-.04.91-.83,1.67-2.02,1.67-.84,0-1.71-.34-2.16-.63l-.56,1.29Zm-12.23,0c.45.36,1.4.68,2.5.7,2.17,0,3.96-1.2,4.05-3.35.05-1.14-.67-2.02-1.78-2.68-.91-.51-1.37-.97-1.34-1.71.04-.88.83-1.54,1.9-1.54.76,0,1.38.25,1.73.46l.55-1.33c-.37-.25-1.18-.51-2.09-.51-2.17,0-3.77,1.37-3.85,3.16-.05,1.03.56,1.94,1.72,2.59,1.05.59,1.39,1.08,1.35,1.88-.04.91-.83,1.67-2.02,1.67-.84,0-1.71-.34-2.16-.63l-.56,1.29Zm-6.21-7.27c-.07,1.58-2.24,1.96-4.98,1.92.49-1.6,1.81-3.23,3.48-3.23.93,0,1.54.46,1.5,1.29v.02Zm-.14,5.86c-.65.34-1.57.7-2.77.7-1.05,0-1.86-.44-2.21-1.37-.21-.53-.23-1.48-.12-1.92,3.77.06,6.82-.63,6.94-3.31.07-1.48-.93-2.64-2.87-2.64-3.29,0-5.73,3.48-5.86,6.56-.1,2.26,1,4.09,3.69,4.09,1.37,0,2.63-.38,3.41-.8l-.19-1.31Zm-21.07,1.9l1.15-4.96c.58-2.53,2.42-4.03,3.66-4.03s1.57.76,1.52,1.77c-.02.44-.1.91-.19,1.31l-1.39,5.9h1.73l1.41-5.97c.13-.55.24-1.18.26-1.65.1-2.13-1.24-2.83-2.44-2.83-1.5,0-2.9.8-3.9,2.24h-.04l.36-2h-1.58c-.14.84-.34,1.83-.62,2.97l-1.68,7.23h1.73Zm-7.11-11.93c.67,0,1.18-.49,1.23-1.18.03-.63-.37-1.1-.98-1.1s-1.16.51-1.21,1.18c-.03.63.33,1.1.94,1.1h.02Zm-2.08,11.93l2.4-10.21h-1.73l-2.42,10.21h1.75Zm-14.36-.49c.45.36,1.4.68,2.5.7,2.17,0,3.96-1.2,4.05-3.35.05-1.14-.67-2.02-1.78-2.68-.91-.51-1.37-.97-1.34-1.71.04-.88.83-1.54,1.9-1.54.76,0,1.38.25,1.73.46l.55-1.33c-.37-.25-1.18-.51-2.09-.51-2.17,0-3.77,1.37-3.85,3.16-.05,1.03.57,1.94,1.72,2.59,1.05.59,1.39,1.08,1.35,1.88-.04.91-.84,1.67-2.02,1.67-.84,0-1.71-.34-2.16-.63l-.57,1.29Zm-6.39-9.72l-1.23,5.23c-.52,2.23-2.22,3.73-3.5,3.73-1.2,0-1.59-.72-1.54-1.77.02-.44.1-.93.24-1.5l1.33-5.69h-1.73l-1.38,5.76c-.16.67-.25,1.24-.27,1.73-.1,2.32,1.26,2.95,2.56,2.95s2.72-.82,3.7-2.15h.04l-.36,1.92h1.58c.12-.84.31-1.83.58-2.97l1.72-7.23h-1.75Zm-20.61,3.35h1.43c1.58,0,2.96.74,2.89,2.4-.1,2.28-2.08,3.16-4.15,3.14-.49,0-.99-.02-1.43-.08l1.26-5.46Zm1.43-5.95c.28-.08.81-.13,1.46-.13,1.54,0,2.55.59,2.48,1.96-.08,1.73-1.69,2.78-3.73,2.78h-1.31l1.1-4.62Zm-4.71,12.69c.65.13,1.7.21,2.92.21,1.92,0,3.49-.32,4.67-1.16.96-.7,1.77-1.83,1.84-3.31.08-1.71-.93-2.78-2.18-3.16v-.04c1.62-.42,3.14-1.75,3.22-3.56.04-.91-.28-1.67-.93-2.21-.71-.67-1.77-.97-3.23-.97-1.16,0-2.18.13-3.07.3l-3.25,13.92Z"/>
    <path class="cls-2" d="m228.52,0l-.96,3.96c1.48.2,3.36.61,5.64,1.23,2.28.62,3.9,1.35,4.86,2.19.52.44.91,1.11,1.17,2.01.26.9.39,2.01.39,3.33,0,1.44-.16,3.17-.48,5.19-.32,2.02-.72,4.09-1.2,6.21l-9.8,42.37L195.85,0h-24.45l-.96,3.96c1.6.16,3.41.55,5.43,1.17,2.02.62,3.73,1.73,5.13,3.33.8.96,1.31,1.87,1.53,2.73.22.86.33,1.77.33,2.73,0,.8-.06,1.67-.18,2.61-.12.94-.32,2.07-.6,3.39l-9.59,41.27c-1.21,5.36-2.37,9.25-3.49,11.67-1.12,2.42-2.48,4.17-4.08,5.25-.84.6-2.54,1.23-5.1,1.89-2.56.66-4.5,1.05-5.82,1.17l-.9,3.96h34.89l.9-3.96c-.88-.08-2.68-.5-5.4-1.26-2.72-.76-4.42-1.56-5.1-2.4-.48-.56-.86-1.27-1.14-2.13-.28-.86-.42-1.99-.42-3.39,0-1.32.16-3.04.48-5.16.32-2.12.73-4.22,1.21-6.3l10.75-46.46,34.84,71.89h5.36l14.5-62.62c1.04-4.4,2.11-8.01,3.21-10.83,1.1-2.82,2.51-4.73,4.23-5.73,1.12-.64,2.92-1.26,5.4-1.86,2.48-.6,4.26-.92,5.34-.96l.96-3.96h-34.58Zm-94.57,40.33c-3.36,1.54-7.36,2.31-12,2.31h-6.78l8.68-38.09h7.81c2.84,0,5.21.37,7.09,1.11,1.88.74,3.42,1.75,4.62,3.03,1.2,1.32,2.05,2.8,2.55,4.45.5,1.64.75,3.38.75,5.23,0,2.32-.34,4.82-1.02,7.48-.68,2.66-1.84,5.18-3.48,7.54-2.12,3.08-4.86,5.4-8.22,6.94m20.96-35.75c-4.3-3.06-9.88-4.59-16.72-4.59h-37.88l-.9,3.96c1.2.08,2.52.24,3.96.48,1.44.24,2.8.6,4.08,1.08.88.36,1.48.88,1.8,1.56.32.68.48,1.44.48,2.28,0,.4-.03.82-.09,1.26-.06.44-.13.84-.21,1.2l-14.34,62.02c-.28,1.4-.79,2.63-1.53,3.69-.74,1.06-1.83,1.87-3.27,2.43-.84.32-2.18.58-4.02.78-1.84.2-3.26.34-4.26.42l-.9,3.96h36.56l.9-3.96c-1.44-.04-3.07-.18-4.89-.42-1.82-.24-3.03-.5-3.63-.78-.96-.4-1.6-.94-1.92-1.62-.32-.68-.48-1.46-.48-2.34,0-.28.02-.62.06-1.02.04-.4.1-.78.18-1.15l6.07-26.27h10.39c4.77,0,9.33-.67,13.7-2.01,4.37-1.34,8.31-3.33,11.83-5.97,3.36-2.52,6.12-5.68,8.26-9.48,2.14-3.8,3.21-8.12,3.21-12.96,0-5.32-2.15-9.51-6.46-12.57M49.45,78.3c-2.99,1.66-6.5,2.49-10.55,2.49-3.29,0-5.99-.46-8.11-1.38-2.12-.92-3.19-2.42-3.19-4.51,0-.44.03-.9.09-1.38.06-.48.15-1.01.27-1.58l6.79-29.36c.92-.04,2.28-.09,4.09-.15,1.8-.06,3.97-.09,6.49-.09,5.21,0,9.26,1.22,12.15,3.67,2.89,2.44,4.33,5.81,4.33,10.09,0,2.72-.44,5.49-1.32,8.29-.88,2.8-2.18,5.39-3.91,7.75-1.76,2.44-4.14,4.5-7.12,6.16m4.15-42.37c-2.86,1.24-6.26,1.86-10.18,1.86h-7.51l7.59-33.11c1.12-.04,2.5-.09,4.12-.15,1.62-.06,3.1-.09,4.42-.09,1.76,0,3.45.17,5.05.51,1.6.34,3.07.93,4.39,1.77,1.32.88,2.37,2.06,3.13,3.54.76,1.48,1.14,3.28,1.14,5.4,0,3.12-.41,5.91-1.23,8.37-.82,2.46-2.17,4.79-4.05,6.99-1.72,2.04-4.01,3.68-6.88,4.92M66.21.75c-2.46-.5-5.11-.75-7.95-.75H20.72l-.96,3.96c1.12.08,2.33.27,3.63.57,1.3.3,2.53.77,3.69,1.41.84.44,1.43.97,1.77,1.59.34.62.51,1.35.51,2.19,0,.4-.03.79-.09,1.17-.06.38-.13.77-.21,1.17l-14.28,61.78c-.32,1.4-.85,2.59-1.59,3.57-.74.98-1.81,1.75-3.21,2.31-.84.36-2.22.67-4.14.93-1.92.26-3.36.43-4.32.51l-.96,3.96h41.59c4.16,0,8.22-.55,12.16-1.65,3.94-1.1,7.64-2.81,11.08-5.13,3.2-2.16,5.85-4.97,7.96-8.43,2.1-3.46,3.15-7.45,3.15-11.97,0-3.04-.67-5.67-2.01-7.89-1.34-2.22-3.07-4.03-5.19-5.43-2-1.36-4.24-2.45-6.73-3.27-2.48-.82-4.88-1.37-7.2-1.65v-.53c3.04-.6,6.05-1.53,9.03-2.79,2.98-1.26,5.65-2.85,8.02-4.77,2.32-1.88,4.2-4.2,5.64-6.96,1.44-2.76,2.16-5.96,2.16-9.59,0-2.64-.62-4.95-1.86-6.93-1.24-1.98-2.96-3.57-5.16-4.77-2.2-1.24-4.53-2.11-6.99-2.61"/>
  </g>
</svg>